<?xml version="1.0" standalone="no"?>
<!DOCTYPE svg PUBLIC "-//W3C//DTD SVG 20010904//EN"
 "http://www.w3.org/TR/2001/REC-SVG-20010904/DTD/svg10.dtd">
<svg version="1.0" xmlns="http://www.w3.org/2000/svg"
 width="1024.000000pt" height="1024.000000pt" viewBox="0 0 1024.000000 1024.000000"
 preserveAspectRatio="xMidYMid meet">

<g transform="translate(0.000000,1024.000000) scale(0.100000,-0.100000)"
fill="#000000" stroke="none">
<path d="M0 5120 l0 -5120 5120 0 5120 0 0 5120 0 5120 -5120 0 -5120 0 0
-5120z m2769 3733 c46 -100 143 -182 312 -263 121 -57 198 -78 329 -86 92 -6
147 -3 560 32 239 20 503 14 702 -16 309 -46 514 -136 668 -294 61 -63 67 -66
112 -66 100 0 221 -71 320 -187 193 -226 260 -541 213 -987 -8 -77 -14 -140
-12 -141 1 -1 22 -7 47 -14 89 -26 140 -113 151 -256 10 -130 2 -362 -14 -424
-39 -145 -84 -188 -226 -219 l-79 -17 -37 -70 c-106 -200 -289 -375 -489 -465
-80 -37 -207 -70 -264 -70 -40 0 -48 -4 -83 -44 -54 -61 -125 -90 -204 -84
-67 6 -146 36 -184 71 -30 28 -61 94 -61 132 0 74 79 170 157 193 142 42 250
12 314 -88 l16 -24 88 22 c168 41 311 125 427 251 158 171 208 369 188 746
-17 327 -62 639 -110 764 -84 217 -253 379 -430 411 -104 19 -200 -3 -471
-105 -301 -114 -450 -140 -754 -132 -465 12 -755 115 -981 349 -132 136 -218
284 -264 453 -27 99 -38 337 -21 441 14 83 51 214 61 214 4 0 12 -12 19 -27z
m341 -1372 c79 -59 124 -99 123 -110 -1 -9 -11 -47 -22 -85 -34 -116 -52 -268
-61 -539 -27 -731 85 -1223 362 -1591 166 -221 426 -408 708 -507 l105 -37
-60 -18 c-89 -28 -248 -26 -340 4 -223 74 -472 304 -654 606 -98 161 -176 365
-227 592 l-27 122 -56 12 c-82 18 -149 49 -171 80 -10 15 -28 60 -40 101 -45
160 -32 533 22 631 27 50 77 86 130 94 l38 7 0 332 c0 183 3 353 6 378 6 41 9
45 23 34 9 -7 72 -54 141 -106z m659 -592 c500 -152 585 -173 671 -166 82 7
136 21 627 164 222 64 405 115 407 112 5 -6 56 -555 56 -605 0 -50 -35 -119
-98 -193 -49 -58 -233 -224 -294 -267 l-37 -26 -53 20 c-29 11 -152 63 -273
115 -242 104 -279 117 -345 117 -66 0 -101 -12 -339 -117 -119 -52 -240 -104
-269 -115 l-53 -20 -37 26 c-58 40 -228 197 -289 267 -106 123 -103 108 -103
490 0 302 1 331 16 325 9 -4 195 -61 413 -127z m5736 -1300 c-33 -228 -109
-478 -203 -664 -191 -384 -525 -689 -881 -804 -131 -43 -220 -56 -386 -55
-236 1 -389 37 -692 165 -229 97 -286 116 -443 145 -185 35 -388 42 -540 20
-198 -29 -520 -146 -834 -303 -149 -75 -546 -302 -721 -413 -457 -290 -1336
-877 -1524 -1019 -86 -64 -175 -129 -198 -143 l-41 -27 -79 87 c-286 314 -737
905 -891 1167 -46 79 -102 208 -102 237 0 45 165 171 405 310 188 108 673 368
687 368 2 0 3 -53 3 -117 0 -221 37 -362 142 -535 53 -88 53 -88 193 -206 150
-125 170 -139 241 -168 35 -14 84 -41 108 -60 24 -19 48 -34 53 -34 13 0 131
51 146 63 10 8 -6 30 -73 97 l-87 87 79 48 c439 272 679 440 968 679 153 126
540 472 598 535 l48 51 -3 -205 c-2 -113 -2 -205 -2 -205 1 0 41 41 90 91 163
168 353 292 539 352 269 87 550 93 1075 22 596 -81 569 -79 840 -79 239 0 263
1 380 26 263 57 502 158 725 306 122 81 278 207 350 282 50 51 52 45 30 -101z
m-2549 -1443 c131 -28 302 -99 480 -197 l97 -54 -39 -14 c-82 -31 -294 -143
-407 -215 -221 -142 -495 -361 -890 -712 -119 -105 -234 -213 -592 -554 -371
-354 -932 -821 -1243 -1034 l-42 -29 -72 59 c-40 33 -127 106 -193 164 -66 58
-181 158 -255 222 -74 64 -191 166 -260 228 -69 61 -177 155 -241 208 l-116
96 53 22 c94 38 305 171 569 360 450 322 531 376 915 619 459 291 524 328 823
477 410 205 681 305 972 359 119 22 328 20 441 -5z"/>
<path d="M5114 6579 c-172 -28 -288 -70 -392 -141 l-44 -30 37 -25 c110 -75
214 -86 319 -34 35 17 80 47 101 68 41 40 88 132 83 161 -3 17 -7 17 -104 1z"/>
<path d="M3646 6563 c38 -159 220 -272 384 -239 51 11 160 68 160 85 0 8 -85
64 -135 89 -71 35 -313 92 -392 92 -20 0 -23 -3 -17 -27z"/>
</g>
</svg>
